<mxfile host="app.diagrams.net" modified="2023-05-19T15:19:10.490Z" agent="Mozilla/5.0 (Windows NT 10.0; Win64; x64) AppleWebKit/537.36 (KHTML, like Gecko) Chrome/113.0.0.0 Safari/537.36" etag="KEuF018uu2aXgcCrK3NA" version="21.3.2" type="github">
  <diagram name="ページ1" id="rUbex1x3FdP54zc6fJcI">
    <mxGraphModel dx="836" dy="540" grid="1" gridSize="10" guides="1" tooltips="1" connect="1" arrows="1" fold="1" page="1" pageScale="1" pageWidth="827" pageHeight="1169" math="0" shadow="0">
      <root>
        <mxCell id="0" />
        <mxCell id="1" parent="0" />
        <mxCell id="txSLlDW2Fo_miSAW73bg-1" value="&lt;font style=&quot;font-size: 20px;&quot;&gt;Only change the direction if there are no requests in the floors beyond the current floor.&lt;/font&gt;" style="text;html=1;strokeColor=none;fillColor=none;align=center;verticalAlign=middle;whiteSpace=wrap;rounded=0;" vertex="1" parent="1">
          <mxGeometry y="40" width="800" height="80" as="geometry" />
        </mxCell>
        <mxCell id="txSLlDW2Fo_miSAW73bg-2" value="&lt;span style=&quot;font-size: 20px;&quot;&gt;When the direction is changed, request position is decided from the queue that is furthest from the current floor and all other queue is moved to detour.&lt;/span&gt;" style="text;html=1;strokeColor=none;fillColor=none;align=center;verticalAlign=middle;whiteSpace=wrap;rounded=0;" vertex="1" parent="1">
          <mxGeometry y="120" width="800" height="80" as="geometry" />
        </mxCell>
        <mxCell id="txSLlDW2Fo_miSAW73bg-4" value="&lt;span style=&quot;font-size: 20px;&quot;&gt;If requested direction does not match with current direction, the request is pushed to queue(memory). Otherwise it is pushed to detour(memory).&lt;/span&gt;" style="text;html=1;strokeColor=none;fillColor=none;align=center;verticalAlign=middle;whiteSpace=wrap;rounded=0;" vertex="1" parent="1">
          <mxGeometry y="200" width="800" height="80" as="geometry" />
        </mxCell>
        <mxCell id="txSLlDW2Fo_miSAW73bg-5" value="&lt;font style=&quot;font-size: 20px;&quot;&gt;Request position is always updated by further request and old request position is pushed to detour.(detour takes higher priority than requested position.)&lt;/font&gt;" style="text;html=1;strokeColor=none;fillColor=none;align=center;verticalAlign=middle;whiteSpace=wrap;rounded=0;" vertex="1" parent="1">
          <mxGeometry y="280" width="800" height="80" as="geometry" />
        </mxCell>
        <mxCell id="txSLlDW2Fo_miSAW73bg-6" value="" style="ellipse;whiteSpace=wrap;html=1;aspect=fixed;" vertex="1" parent="1">
          <mxGeometry x="305" y="420" width="190" height="190" as="geometry" />
        </mxCell>
      </root>
    </mxGraphModel>
  </diagram>
</mxfile>
